<?xml version="1.0" encoding="utf-8"?>
<!-- Generator: Adobe Illustrator 15.1.0, SVG Export Plug-In . SVG Version: 6.00 Build 0)  -->
<!DOCTYPE svg PUBLIC "-//W3C//DTD SVG 1.1//EN" "http://www.w3.org/Graphics/SVG/1.1/DTD/svg11.dtd">
<svg version="1.1" id="Ebene_1" xmlns="http://www.w3.org/2000/svg" xmlns:xlink="http://www.w3.org/1999/xlink" x="0px" y="0px"
	 width="595.28px" height="595.275px" viewBox="0 0 595.28 595.275" enable-background="new 0 0 595.28 595.275"
	 xml:space="preserve">
<rect fill="#B8CADB" width="595.275" height="595.275"/>
<g>
	<path stroke="#000000" stroke-miterlimit="10" d="M532.5,181.5h-88v-36.695c23.326-3.669,41.167-23.854,41.167-48.21
		c0-26.957-21.853-48.81-48.81-48.81s-48.81,21.853-48.81,48.81c0,23.931,17.227,43.825,39.952,47.993V181.5h-86
		c-6.627,0-12,5.373-12,12v94.421l-34.938-25.348l17.593-32.546l0.23,0.121c2.732-4.966,4.294-10.678,4.294-16.758
		c0-19.126-15.398-34.63-34.394-34.63c-13.466,0-25.113,7.799-30.759,19.148l-0.078-0.042L135.188,413.788l-7.622,66.713H26.333
		v14.181H126.72l12.27-0.193l57.296-49.181l90.862-168.091L330,308.307V414c0,6.627,5.373,12,12,12h190.5c6.627,0,12-5.373,12-12
		V193.5C544.5,186.873,539.127,181.5,532.5,181.5z M400.548,96.595c0-20.053,16.256-36.309,36.31-36.309
		c20.053,0,36.309,16.256,36.309,36.309c0,20.053-16.256,36.31-36.309,36.31C416.804,132.904,400.548,116.648,400.548,96.595z
		 M148.06,419.406c14.874,4.508,27.167,11.496,35.067,19.624l-24.305,20.863c-4.132-2.933-9.076-5.497-14.618-7.563L148.06,419.406z
		 M190.704,427.557c-8.122-8.526-21.063-15.822-36.765-20.375L263.59,204.371l0.195,0.102c3.423-6.837,10.633-11.563,19.001-11.563
		c11.67,0,21.131,9.169,21.131,20.48c0,3.708-1.044,7.167-2.822,10.167l-0.076-0.041L190.704,427.557z M416.952,261.19
		c0,6.627-5.373,12-12,12h-24.81c-6.627,0-12-5.373-12-12v-24.81c0-6.627,5.373-12,12-12h24.81c6.627,0,12,5.373,12,12V261.19z
		 M506.285,261.19c0,6.628-5.373,12-12,12h-24.81c-6.627,0-12-5.372-12-12v-24.81c0-6.627,5.373-12,12-12h24.81
		c6.627,0,12,5.373,12,12V261.19z"/>
	<path stroke="#000000" stroke-miterlimit="10" d="M499.41,432.32c-0.306,0-0.607,0.015-0.91,0.023v0.005H374.75v-0.005
		c-0.303-0.009-0.604-0.023-0.91-0.023c-17.222,0-31.181,13.959-31.181,31.181s13.959,31.181,31.181,31.181
		c0.306,0,0.607-0.015,0.91-0.023v-0.017H498.5v0.017c0.303,0.009,0.604,0.023,0.91,0.023c17.222,0,31.181-13.959,31.181-31.181
		S516.632,432.32,499.41,432.32z M499.41,484.761c-0.194,0-0.385-0.016-0.576-0.029v-0.011h-0.218
		c-0.039-0.002-0.077-0.004-0.116-0.006v0.006H374.75v-0.006c-0.039,0.002-0.077,0.004-0.116,0.006h-0.801v0.04
		c-11.738-0.004-21.253-9.521-21.253-21.26s9.515-21.256,21.253-21.26v0.028h0.568c0.116,0.008,0.232,0.013,0.349,0.018v-0.018
		H498.5v0.018c0.116-0.005,0.232-0.01,0.349-0.018h0.36v-0.019c0.067-0.002,0.133-0.01,0.201-0.01c11.741,0,21.26,9.519,21.26,21.26
		S511.151,484.761,499.41,484.761z"/>
	<path stroke="#000000" stroke-miterlimit="10" d="M374.834,447.501c-9.112,0-16.5,7.388-16.5,16.5s7.388,16.5,16.5,16.5
		s16.5-7.388,16.5-16.5S383.946,447.501,374.834,447.501z M374.833,468.168c-2.301,0-4.166-1.865-4.166-4.166
		c0-2.302,1.865-4.167,4.166-4.167c2.302,0,4.167,1.865,4.167,4.167C379,466.303,377.135,468.168,374.833,468.168z"/>
	<path stroke="#000000" stroke-miterlimit="10" d="M497.834,447.501c-9.112,0-16.5,7.388-16.5,16.5s7.388,16.5,16.5,16.5
		s16.5-7.388,16.5-16.5S506.946,447.501,497.834,447.501z M497.833,468.168c-2.301,0-4.166-1.865-4.166-4.166
		c0-2.302,1.865-4.167,4.166-4.167c2.302,0,4.167,1.865,4.167,4.167C502,466.303,500.135,468.168,497.833,468.168z"/>
</g>
</svg>
